<?xml version="1.0" encoding="UTF-8"?>
<!DOCTYPE svg PUBLIC "-//W3C//DTD SVG 1.1//EN" "http://www.w3.org/Graphics/SVG/1.1/DTD/svg11.dtd">
<svg xmlns="http://www.w3.org/2000/svg" version="1.1" width="100px" height="100px" style="shape-rendering:geometricPrecision; text-rendering:geometricPrecision; image-rendering:optimizeQuality; fill-rule:evenodd; clip-rule:evenodd" xmlns:xlink="http://www.w3.org/1999/xlink">
<g><path style="opacity:1" fill="#d44432" d="M 7.5,-0.5 C 21.5,-0.5 35.5,-0.5 49.5,-0.5C 49.5,16.1667 49.5,32.8333 49.5,49.5C 41.9004,51.6502 34.2337,53.6502 26.5,55.5C 17.4746,40.7695 8.47463,26.1028 -0.5,11.5C -0.5,10.1667 -0.5,8.83333 -0.5,7.5C 1.5,4.16667 4.16667,1.5 7.5,-0.5 Z"/></g>
<g><path style="opacity:0.986" fill="#f34d38" d="M 49.5,-0.5 C 63.5,-0.5 77.5,-0.5 91.5,-0.5C 93.3545,0.689603 95.1879,2.02294 97,3.5C 99.4884,8.32986 98.655,9.32986 94.5,6.5C 85.8538,8.1077 77.1872,9.6077 68.5,11C 66.9559,11.2896 65.6226,11.9563 64.5,13C 69.9652,21.4308 75.7986,29.5975 82,37.5C 82.9819,38.7589 83.3152,40.0922 83,41.5C 71.9444,44.5554 60.7777,47.222 49.5,49.5C 49.5,32.8333 49.5,16.1667 49.5,-0.5 Z"/></g>
<g><path style="opacity:0.979" fill="#f34e38" d="M 99.5,14.5 C 99.5,22.1667 99.5,29.8333 99.5,37.5C 96.3163,38.4214 93.1496,39.4214 90,40.5C 83.8333,32.3333 77.6667,24.1667 71.5,16C 79.1543,13.6922 86.9876,11.8588 95,10.5C 97.0067,11.3441 98.5067,12.6774 99.5,14.5 Z"/></g>
<g><path style="opacity:1" fill="#d75746" d="M -0.5,22.5 C 0.673734,23.5137 1.3404,24.847 1.5,26.5C 0.505231,37.6544 0.171898,48.9877 0.5,60.5C 1.5,60.5 2.5,60.5 3.5,60.5C 2.43236,61.4345 1.09903,61.7678 -0.5,61.5C -0.5,48.5 -0.5,35.5 -0.5,22.5 Z"/></g>
<g><path style="opacity:1" fill="#d54937" d="M 1.5,26.5 C 3.58797,28.3356 4.9213,30.6689 5.5,33.5C 5.42702,35.0269 6.09368,36.0269 7.5,36.5C 8.67373,37.5137 9.3404,38.847 9.5,40.5C 9.42702,42.0269 10.0937,43.0269 11.5,43.5C 13.9236,46.0078 15.5903,49.0078 16.5,52.5C 16.427,54.0269 17.0937,55.0269 18.5,55.5C 19.7383,55.81 19.7383,56.31 18.5,57C 13.5977,58.6425 8.59766,59.8091 3.5,60.5C 2.5,60.5 1.5,60.5 0.5,60.5C 0.171898,48.9877 0.505231,37.6544 1.5,26.5 Z"/></g>
<g><path style="opacity:0.796" fill="#d86c62" d="M 5.5,33.5 C 6.90632,33.9731 7.57298,34.9731 7.5,36.5C 6.09368,36.0269 5.42702,35.0269 5.5,33.5 Z"/></g>
<g><path style="opacity:0.847" fill="#dc6e60" d="M 9.5,40.5 C 10.9063,40.9731 11.573,41.9731 11.5,43.5C 10.0937,43.0269 9.42702,42.0269 9.5,40.5 Z"/></g>
<g><path style="opacity:0.904" fill="#f34e3a" d="M 99.5,43.5 C 99.5,46.8333 99.5,50.1667 99.5,53.5C 97.1712,51.1587 95.1712,48.4921 93.5,45.5C 95.1727,43.9137 97.1727,43.2471 99.5,43.5 Z"/></g>
<g><path style="opacity:0.989" fill="#f34d38" d="M 99.5,60.5 C 99.5,66.8333 99.5,73.1667 99.5,79.5C 83.3316,84.7227 67.1649,90.056 51,95.5C 50.2352,95.4301 49.7352,95.0967 49.5,94.5C 49.5,81.8333 49.5,69.1667 49.5,56.5C 61.755,53.0189 74.0884,49.6855 86.5,46.5C 88.3829,46.8757 89.8829,47.8757 91,49.5C 93.3696,53.5969 96.2029,57.2635 99.5,60.5 Z"/></g>
<g><path style="opacity:0.796" fill="#d86c62" d="M 16.5,52.5 C 17.9063,52.9731 18.573,53.9731 18.5,55.5C 17.0937,55.0269 16.427,54.0269 16.5,52.5 Z"/></g>
<g><path style="opacity:1" fill="#d54432" d="M 49.5,56.5 C 49.5,69.1667 49.5,81.8333 49.5,94.5C 42.6891,84.2269 36.3558,73.5602 30.5,62.5C 31.3805,61.0295 32.7139,60.1962 34.5,60C 39.478,58.6719 44.478,57.5053 49.5,56.5 Z"/></g>
<g><path style="opacity:1" fill="#d44432" d="M 43.5,99.5 C 31.5,99.5 19.5,99.5 7.5,99.5C 4.16667,97.5 1.5,94.8333 -0.5,91.5C -0.5,84.1667 -0.5,76.8333 -0.5,69.5C 7.31512,66.7253 15.3151,64.8919 23.5,64C 29.9944,75.9785 36.6611,87.8118 43.5,99.5 Z"/></g>
<g><path style="opacity:0.932" fill="#f34d38" d="M 99.5,86.5 C 99.5,88.1667 99.5,89.8333 99.5,91.5C 97.5,94.8333 94.8333,97.5 91.5,99.5C 82.8333,99.5 74.1667,99.5 65.5,99.5C 76.6066,94.7942 87.9399,90.4609 99.5,86.5 Z"/></g>
</svg>
