<svg version="1.2" xmlns="http://www.w3.org/2000/svg" viewBox="0 0 229 45" width="229" height="45">
	<style>
		.s0 { fill: #000000 } 
	</style>
	<g id="Capa_1-2">
		<path id="BERNARDO" class="s0" aria-label="BERNARDO"  d="m32.3 10.4q0.5 1.3 0.5 2.7 0 2.2-1.3 3.5-1.2 1.6-3.7 2.6-2.6 1-3.2 1.3 2.4 1.1 3.5 1.8 1.1 0.7 1.6 2.1 0.5 1.4 0.5 2.8 0 3.3-2.3 5.4-2.3 2.1-5.9 2.9-3.6 0.8-8.2 0.8-2.4 0-6-0.1-3.6-0.1-3.9-0.1 0.3-0.2 0.2-0.5-0.1-0.2 0.1-0.2 1.9 0 3.4-0.3 1.5-0.4 1.9-1.8l7-25.1q0-0.3-0.7-0.5-0.6-0.2-2.5-0.2-0.7 0-1.2 0.1-0.4 0-0.7 0-0.3 0-0.3-0.2 0.1-0.2 0.2-0.5 2.2 0 5.4 0 3.2-0.1 3.5-0.1 0.9 0 1.8 0 0.9 0 1.8 0 3.2 0 5.3 0.7 2 0.6 3.2 2.9zm-11.9-2.3q-0.2 0.1-1.2 4-1 3.8-2 7.6 1.3 0.3 2.8 0.3 2.1 0 4.1-0.6 2-0.6 2.9-1.9 1.1-1.3 1.4-2.6 0.3-1.3 0.4-2.2 0.2-0.8 0.2-1.4 0-1-0.3-1.8-0.3-0.7-1.2-1.1-0.8-0.5-1.9-0.8-1-0.4-2.2-0.4-1.6 0-3 0.9zm2.6 13q-1.8-0.4-4-0.4-2.2 0-2.4 0.7-0.6 1.8-1.5 5.1-0.8 3.3-2.2 8.5 0.7 0 1.5 0.1 0.8 0 1.6 0 2.2 0 3.3-0.2 1-0.2 2.3-0.8 1.3-0.7 2.4-2.2 1.2-1.6 1.8-3.5 0.3-1.1 0.3-2.3 0-1.3-0.4-2.2-0.3-1.1-0.9-1.7-0.5-0.6-0.9-0.8-0.4-0.2-0.9-0.3zm38.4-14.3q0.3 0 0.3 0.9 0 2.1-1.3 6.6-1.3 4.4-1.9 4.3 0.1-0.4 0.2-1.4 0.2-1 0.2-2.6 0-1.8-0.4-3.3-0.3-1.4-1.1-2.3-0.9-0.8-2.1-1.1-1.1-0.3-2.7-0.3-1 0-2 0-1 0.1-1.9 0.1-0.6 0-1 0.5-0.3 0.4-0.5 1l-3 10.9q0 0.2 0.1 0.3 0.2 0.2 0.8 0.2 1.3 0 3-0.7 1.8-0.7 2.5-1.6 0.7-0.9 1.6-2.1 0.9-1.3 1.2-2.8h0.4q-2.1 8-4.3 15.2h-0.4q0.2-1.1 0.4-2 0.1-0.9 0.1-1.7 0-1.2-0.5-1.9-0.4-0.8-1.5-1.4-1.1-0.5-2.2-0.5-1.6 0-1.9 1.3l-2.7 10.9q-0.1 0.1-0.1 0.3 0 0.1 0 0.2 0 0.9 1.1 1.3 1.1 0.4 2.7 0.4 0.9 0 1.8-0.1 0.9-0.1 2.8-0.2 1.8-0.2 4.4-3.7 2-3.6 4.1-7.2 0.1 0 0.1 0.7 0 2.1-1.2 6.5-1.3 4.5-2.1 4.5-3.2 0-6.3 0-3.1 0-8.5 0-5.2 0-8.1 0 0-0.1 0-0.2 0-0.1 0-0.3 0.2 0 0.7 0 1.4 0 2.8-0.5 1.4-0.5 1.7-1.7l6.8-24.7q0.2-0.9-1.8-1.1-1.2-0.1-2.5-0.2-0.1-0.1-0.1-0.2 0-0.2 0.1-0.4 1.2 0 4.4 0 3.1 0 6.5 0 3.8 0 7.4 0 3.7 0 3.9 0.1zm10.7 29.2h-12.4l0.1-0.4q0.2 0 0.5 0 1.4 0 2.2-0.6 0.8-0.6 1.1-1.7l6.7-24.4q0.2-1-0.9-1.2-1-0.4-2.7-0.4h-0.8q0-0.1 0.1-0.2 0.1-0.2 0-0.3 0.4 0.1 1.1 0.1 0.7 0 1.4 0 0.9 0 3.1-0.1 2.2 0 3.4 0 1.8 0 3.2 0 1.3 0.1 3.3 0.4 1.9 0.2 4.1 1.8 2.1 1.7 2.1 4.2 0 2.1-1.2 3.6-1.2 1.4-2.7 2.3-1.6 0.9-3.3 1.3-1.8 0.3-2.2 0.5 0.8 0.5 2.1 1.2 1.4 0.8 1.6 1.7 0.1 0.9 0.2 1.4 0 0.6 0 1.1 0 1.7-0.7 4-0.8 2.4-0.8 3.2 0 0.6 0.2 1.1 0.2 0.5 0.8 0.5 0.6 0 1.6-0.5 1.1-0.5 2.1-2.3 0.9-1.7 2-4.7 0.2 0.2 0.3 0.1-1.1 3.1-2.4 5.3-1.3 2.2-2.8 2.7-1.4 0.4-2 0.4-1.6 0-2.3-0.9-0.7-1-0.9-1.7-0.3-0.8-0.3-1.7 0-1.5 1-4 0.9-2.5 0.9-3.4 0-1-0.7-1.9-0.7-0.8-1.9-1.1-1.1-0.4-2.4-0.4-0.9 0-1.7 0.1-0.7 0.1-1.1 0.1l-3.1 11.9q-0.1 0.4-0.1 0.7 0 1.1 0.9 1.5 1 0.4 2.1 0.4 0.8 0 1.2-0.1zm2.8-28.7l-3.4 12.7q0.7 0 1.5 0.1 0.7 0 1.5 0 3.1 0 4.6-0.5 1.5-0.6 2.5-1.7 1-1.1 1.6-2.4 0.6-1.3 0.6-2.7 0-1-0.6-2.5-0.6-1.6-2.6-2.3-2-0.8-4.2-0.8-0.6 0-0.9 0.1-0.3 0-0.6 0zm28.2 2.5l7.2 18.5 4.7-16.4q0.3-0.9 0.3-1.5 0-1.7-1.4-2.4-1.3-0.6-2.9-0.6-0.6 0-0.7 0 0-0.3 0-0.6h11.7q-0.1 0.3-0.1 0.5-0.7 0-1.1 0-1.4 0-2.4 0.6-1.1 0.5-1.6 2.1l-7.4 26h-0.3l-9-23.9-5.3 20.1q-0.2 0.6-0.2 1 0 1.4 1.1 1.8 1.1 0.5 2.6 0.5h0.8q0 0.3 0 0.5h-11.8v-0.5h0.7q1.6 0 3.1-0.8 1.5-0.7 2.2-3.3l5.6-20.1q0.2-1 0.2-1.5 0-1.1-0.8-1.8-0.7-0.6-2.9-0.6-0.7 0-1.4 0-0.2 0-0.1-0.2 0-0.2 0.1-0.4 0.9 0 1.7 0 0.9 0 1.7 0 2.5 0 3.7 0.5 1.2 0.6 2 2.5zm36.9-3.1l-0.1 27.9q0 0.4 1.1 0.6 1.4 0.1 2.9 0.2 0.1 0 0.1 0.2-0.1 0.2-0.1 0.3h-12.9q-0.1-0.4 0.2-0.4 0.6 0 1.1 0 1.6 0 2.5-0.2 1-0.3 1-1.1v-7.9l-7.8-0.1-4.2 7.5q-0.2 0.3-0.2 0.5 0 0.8 1.1 1 1.1 0.3 2.6 0.3h0.7v0.5h-11.5q0-0.5 0-0.5 0.4 0.1 0.9 0.1 1.5 0 2.9-0.4 1.4-0.5 2.6-2.6 1.3-2.1 4.2-6.9 2.9-4.7 6.9-11.4 4.1-6.8 4.4-7.6 0.1-0.1 0.5-0.1 0.3 0 0.6 0 0.3 0.1 0.5 0.1zm-3.9 6.7l-0.2-0.5-7.4 12.2h7.3q0-1.5 0.1-5.6 0.2-4.1 0.2-6.1zm22 22.6h-12.4l0.1-0.4q0.2 0 0.5 0 1.4 0 2.2-0.6 0.8-0.6 1.1-1.8l6.7-24.3q0.2-1-0.9-1.3-1-0.3-2.7-0.3h-0.8q0-0.1 0.1-0.2 0.1-0.2 0-0.3 0.4 0.1 1.1 0.1 0.7 0 1.4 0 0.9 0 3.1-0.1 2.2 0 3.4 0 1.8 0 3.2 0 1.3 0.1 3.3 0.3 1.9 0.3 4.1 1.9 2.1 1.7 2.1 4.2 0 2.1-1.2 3.6-1.2 1.4-2.7 2.3-1.6 0.9-3.3 1.3-1.8 0.3-2.2 0.5 0.8 0.5 2.1 1.2 1.4 0.8 1.6 1.7 0.1 0.9 0.2 1.4 0 0.6 0 1.1 0 1.7-0.7 4-0.8 2.4-0.8 3.2 0 0.6 0.2 1.1 0.2 0.4 0.8 0.4 0.6 0 1.6-0.4 1.1-0.5 2.1-2.3 0.9-1.8 2-4.7 0.2 0.2 0.3 0.1-1.1 3.1-2.4 5.3-1.3 2.2-2.8 2.7-1.4 0.4-2 0.4-1.6 0-2.3-0.9-0.7-1-0.9-1.7-0.3-0.8-0.3-1.7 0-1.5 1-4 0.9-2.5 0.9-3.4 0-1.1-0.7-1.9-0.8-0.8-1.9-1.1-1.1-0.4-2.4-0.4-1 0-1.7 0.1-0.7 0.1-1.1 0.1l-3.1 11.9q-0.1 0.4-0.1 0.7 0 1.1 0.9 1.5 1 0.4 2.1 0.4 0.8 0 1.2-0.1zm2.8-28.7l-3.4 12.7q0.7 0 1.4 0.1 0.8 0 1.6 0 3.1 0 4.6-0.5 1.5-0.6 2.5-1.7 1-1.1 1.6-2.4 0.6-1.3 0.6-2.7 0-1-0.6-2.6-0.6-1.5-2.6-2.2-2-0.8-4.2-0.8-0.6 0-0.9 0.1-0.3 0-0.6 0zm37.5 1.5q2 1.5 2.7 3.7 0.8 2.1 0.8 4.8 0 0.7-0.1 1.5 0 0.9-0.4 4-0.5 3-3.9 7.1-3.4 4.1-6.6 5.1-3.1 0.9-4.7 1.1-1.6 0.2-3.3 0.2-1.5 0-5.1-0.2-3.5-0.2-5.1-0.2 0.2-0.2 0.1-0.4-0.1-0.3 0.1-0.3 0.7 0.1 1.3 0.1 1.3 0 2.4-0.5 1.1-0.6 1.4-2l6.5-23.6q0.3-1.1-0.6-1.4-0.9-0.3-2.3-0.3h-0.9q-0.2-0.1-0.1-0.4 0-0.3 0.3-0.3 0.3 0 2.5-0.1 2.2-0.1 3.9-0.1 3.8 0 6.7 0.5 2.8 0.4 4.4 1.7zm-4.1-1q-0.3-0.2-1-0.2-0.6-0.2-1.2-0.2-1.3 0-2.4 0.6-1 0.4-1.3 1.8l-6.4 23.3q-0.2 0.8-0.4 1.6 0 0.3 0.8 0.5 0.8 0.2 2.4 0.2 1.7 0 3.9-0.6 2.2-0.7 3.7-2.4 1.6-1.8 2.2-3.3 0.6-1.5 1.9-5.1 1.3-3.7 1.7-5.6 0.4-1.9 0.4-3.8 0-1.5-0.3-2.8-0.3-1.4-0.8-2.2-0.5-0.8-1.3-1.2-0.8-0.3-1.9-0.6zm28.4 2.2q2 3.5 2 7.6 0 5.7-3.1 10.2-3.1 4.3-5.8 6.3-2.6 1.9-5.9 1.9-2.1 0-3.7-1.3-1.6-1.4-2.5-3.8-0.9-2.6-0.9-5.8 0-4.4 2-8.6 2.1-4.2 4.8-6.3 2.7-2.2 4.1-2.9 1.4-0.6 3-0.6 0.8 0 2 0.3 1.3 0.3 2.3 1 1.1 0.8 1.7 2zm-6.5-2.5q-3.2 1.8-4.5 3.9-1.3 2.1-3.7 8.4-2.3 6.3-2.3 8.9 0 1.6 0.4 3.1 0.5 1.4 1.4 2.5 1 1.1 2.3 1.1 0.6 0 1-0.1 0.5-0.2 1.8-0.8 1.4-0.8 2.9-3 1.6-2.3 2.4-4.4 0.8-2.1 2-5.6 1.3-3.5 1.6-5 0.4-1.5 0.4-2.7 0-1.4-0.4-2.7-0.4-1.3-1.3-2.6-0.9-1.4-2.6-1.4-0.8 0-1.4 0.4z"/>
	</g>
</svg>