<?xml version="1.0" encoding="UTF-8"?>
<!DOCTYPE svg PUBLIC "-//W3C//DTD SVG 1.1//EN" "http://www.w3.org/Graphics/SVG/1.1/DTD/svg11.dtd">
<svg xmlns="http://www.w3.org/2000/svg" version="1.1" width="96px" height="96px" style="shape-rendering:geometricPrecision; text-rendering:geometricPrecision; image-rendering:optimizeQuality; fill-rule:evenodd; clip-rule:evenodd" xmlns:xlink="http://www.w3.org/1999/xlink">
<g><path style="opacity:0.995" fill="#e8ad11" d="M 77.5,15.5 C 68.1667,15.5 58.8333,15.5 49.5,15.5C 49.2317,12.8806 49.565,10.3806 50.5,8C 59.1667,7.33333 67.8333,7.33333 76.5,8C 77.435,10.3806 77.7683,12.8806 77.5,15.5 Z"/></g>
<g><path style="opacity:1" fill="#e2a113" d="M 49.5,15.5 C 58.8333,15.5 68.1667,15.5 77.5,15.5C 77.5,19.5 77.5,23.5 77.5,27.5C 71.642,27.1778 65.9753,27.5111 60.5,28.5C 56.9359,27.5773 53.2693,27.244 49.5,27.5C 49.5,23.5 49.5,19.5 49.5,15.5 Z"/></g>
<g><path style="opacity:1" fill="#dd9913" d="M 77.5,27.5 C 77.5,29.8333 77.5,32.1667 77.5,34.5C 72.1667,34.5 66.8333,34.5 61.5,34.5C 61.6747,32.3792 61.3414,30.3792 60.5,28.5C 65.9753,27.5111 71.642,27.1778 77.5,27.5 Z"/></g>
<g><path style="opacity:1" fill="#facc52" d="M 49.5,27.5 C 53.2693,27.244 56.9359,27.5773 60.5,28.5C 61.3414,30.3792 61.6747,32.3792 61.5,34.5C 61.5,36.5 61.5,38.5 61.5,40.5C 52.1071,41.0076 42.7738,42.0076 33.5,43.5C 33.3341,38.4889 33.5007,33.4889 34,28.5C 39.0717,27.5286 44.2384,27.1953 49.5,27.5 Z"/></g>
<g><path style="opacity:1" fill="#d78e14" d="M 61.5,34.5 C 66.8333,34.5 72.1667,34.5 77.5,34.5C 77.5,38.1667 77.5,41.8333 77.5,45.5C 72.1667,45.5 66.8333,45.5 61.5,45.5C 61.5,43.8333 61.5,42.1667 61.5,40.5C 61.5,38.5 61.5,36.5 61.5,34.5 Z"/></g>
<g><path style="opacity:1" fill="#f5c446" d="M 61.5,40.5 C 61.5,42.1667 61.5,43.8333 61.5,45.5C 61.5,46.8333 61.5,48.1667 61.5,49.5C 56.1667,49.8333 50.8333,50.1667 45.5,50.5C 44.3126,48.0246 42.3126,47.0246 39.5,47.5C 37.5,47.5 35.5,47.5 33.5,47.5C 33.5,46.1667 33.5,44.8333 33.5,43.5C 42.7738,42.0076 52.1071,41.0076 61.5,40.5 Z"/></g>
<g><path style="opacity:1" fill="#d28614" d="M 61.5,45.5 C 66.8333,45.5 72.1667,45.5 77.5,45.5C 77.5,47.5 77.5,49.5 77.5,51.5C 72.1667,51.5 66.8333,51.5 61.5,51.5C 61.5,50.8333 61.5,50.1667 61.5,49.5C 61.5,48.1667 61.5,46.8333 61.5,45.5 Z"/></g>
<g><path style="opacity:1" fill="#ffd95b" d="M 33.5,47.5 C 35.5,47.5 37.5,47.5 39.5,47.5C 32.4946,52.0045 25.1613,56.0045 17.5,59.5C 17.2065,55.5633 17.5399,51.73 18.5,48C 23.4889,47.5007 28.4889,47.3341 33.5,47.5 Z"/></g>
<g><path style="opacity:1" fill="#fed954" d="M 39.5,47.5 C 42.3126,47.0246 44.3126,48.0246 45.5,50.5C 36.2088,55.1456 26.8754,59.8123 17.5,64.5C 17.5,62.8333 17.5,61.1667 17.5,59.5C 25.1613,56.0045 32.4946,52.0045 39.5,47.5 Z"/></g>
<g><path style="opacity:1" fill="#cf8015" d="M 61.5,51.5 C 66.8333,51.5 72.1667,51.5 77.5,51.5C 77.5,53.5 77.5,55.5 77.5,57.5C 72.1667,57.5 66.8333,57.5 61.5,57.5C 61.5,55.5 61.5,53.5 61.5,51.5 Z"/></g>
<g><path style="opacity:1" fill="#efbb36" d="M 61.5,49.5 C 61.5,50.1667 61.5,50.8333 61.5,51.5C 61.5,53.5 61.5,55.5 61.5,57.5C 61.5,57.8333 61.5,58.1667 61.5,58.5C 56.1105,58.8404 50.7772,59.507 45.5,60.5C 45.5,60.1667 45.5,59.8333 45.5,59.5C 45.5,56.5 45.5,53.5 45.5,50.5C 50.8333,50.1667 56.1667,49.8333 61.5,49.5 Z"/></g>
<g><path style="opacity:1" fill="#ffdb49" d="M 45.5,50.5 C 45.5,53.5 45.5,56.5 45.5,59.5C 36.4577,65.0215 27.1244,70.0215 17.5,74.5C 17.5,71.1667 17.5,67.8333 17.5,64.5C 26.8754,59.8123 36.2088,55.1456 45.5,50.5 Z"/></g>
<g><path style="opacity:1" fill="#cb7915" d="M 61.5,57.5 C 66.8333,57.5 72.1667,57.5 77.5,57.5C 77.5,59.5 77.5,61.5 77.5,63.5C 72.1667,63.5 66.8333,63.5 61.5,63.5C 61.5,61.8333 61.5,60.1667 61.5,58.5C 61.5,58.1667 61.5,57.8333 61.5,57.5 Z"/></g>
<g><path style="opacity:1" fill="#ebb32a" d="M 61.5,58.5 C 61.5,60.1667 61.5,61.8333 61.5,63.5C 61.5,64.5 61.5,65.5 61.5,66.5C 56.2697,67.6538 50.9364,68.3205 45.5,68.5C 45.5,65.8333 45.5,63.1667 45.5,60.5C 50.7772,59.507 56.1105,58.8404 61.5,58.5 Z"/></g>
<g><path style="opacity:1" fill="#c87315" d="M 61.5,63.5 C 66.8333,63.5 72.1667,63.5 77.5,63.5C 77.5,65.5 77.5,67.5 77.5,69.5C 72.1667,69.5 66.8333,69.5 61.5,69.5C 61.5,68.5 61.5,67.5 61.5,66.5C 61.5,65.5 61.5,64.5 61.5,63.5 Z"/></g>
<g><path style="opacity:1" fill="#ffdc3d" d="M 45.5,59.5 C 45.5,59.8333 45.5,60.1667 45.5,60.5C 45.5,63.1667 45.5,65.8333 45.5,68.5C 45.5,68.8333 45.5,69.1667 45.5,69.5C 36.4079,74.7127 27.0746,79.3794 17.5,83.5C 17.5,80.5 17.5,77.5 17.5,74.5C 27.1244,70.0215 36.4577,65.0215 45.5,59.5 Z"/></g>
<g><path style="opacity:1" fill="#c46d16" d="M 61.5,69.5 C 66.8333,69.5 72.1667,69.5 77.5,69.5C 77.5,71.5 77.5,73.5 77.5,75.5C 72.1667,75.5 66.8333,75.5 61.5,75.5C 61.5,73.5 61.5,71.5 61.5,69.5 Z"/></g>
<g><path style="opacity:1" fill="#e6ab1e" d="M 61.5,66.5 C 61.5,67.5 61.5,68.5 61.5,69.5C 61.5,71.5 61.5,73.5 61.5,75.5C 61.5,75.8333 61.5,76.1667 61.5,76.5C 56.0636,76.6795 50.7303,77.3462 45.5,78.5C 45.5,75.5 45.5,72.5 45.5,69.5C 45.5,69.1667 45.5,68.8333 45.5,68.5C 50.9364,68.3205 56.2697,67.6538 61.5,66.5 Z"/></g>
<g><path style="opacity:1" fill="#fedd2f" d="M 45.5,69.5 C 45.5,72.5 45.5,75.5 45.5,78.5C 45.9347,81.8375 45.2681,84.8375 43.5,87.5C 35.16,87.6664 26.8267,87.4997 18.5,87C 17.6634,85.9887 17.33,84.8221 17.5,83.5C 27.0746,79.3794 36.4079,74.7127 45.5,69.5 Z"/></g>
<g><path style="opacity:1" fill="#c16616" d="M 61.5,75.5 C 66.8333,75.5 72.1667,75.5 77.5,75.5C 77.5,77.5 77.5,79.5 77.5,81.5C 72.1667,81.5 66.8333,81.5 61.5,81.5C 61.5,79.8333 61.5,78.1667 61.5,76.5C 61.5,76.1667 61.5,75.8333 61.5,75.5 Z"/></g>
<g><path style="opacity:0.994" fill="#bd6017" d="M 61.5,81.5 C 66.8333,81.5 72.1667,81.5 77.5,81.5C 77.7394,83.4672 77.4061,85.3005 76.5,87C 70.8431,87.4994 65.1764,87.6661 59.5,87.5C 61.0808,85.8583 61.7475,83.8583 61.5,81.5 Z"/></g>
<g><path style="opacity:1" fill="#e1a310" d="M 61.5,76.5 C 61.5,78.1667 61.5,79.8333 61.5,81.5C 61.7475,83.8583 61.0808,85.8583 59.5,87.5C 54.1667,87.5 48.8333,87.5 43.5,87.5C 45.2681,84.8375 45.9347,81.8375 45.5,78.5C 50.7303,77.3462 56.0636,76.6795 61.5,76.5 Z"/></g>
</svg>
