<?xml version="1.0" encoding="UTF-8"?>
<!DOCTYPE svg PUBLIC "-//W3C//DTD SVG 1.1//EN" "http://www.w3.org/Graphics/SVG/1.1/DTD/svg11.dtd">
<svg xmlns="http://www.w3.org/2000/svg" version="1.1" width="96px" height="96px" style="shape-rendering:geometricPrecision; text-rendering:geometricPrecision; image-rendering:optimizeQuality; fill-rule:evenodd; clip-rule:evenodd" xmlns:xlink="http://www.w3.org/1999/xlink">
<g><path style="opacity:0.99" fill="#41a2ee" d="M 79.5,16.5 C 68.7433,20.3629 57.5766,22.0296 46,21.5C 38.7981,21.4679 31.6314,20.9679 24.5,20C 21.2615,19.3782 18.2615,18.2116 15.5,16.5C 15.33,15.1779 15.6634,14.0113 16.5,13C 26.613,10.0784 36.9463,8.91169 47.5,9.5C 58.0537,8.91169 68.387,10.0784 78.5,13C 79.3366,14.0113 79.67,15.1779 79.5,16.5 Z"/></g>
<g><path style="opacity:1" fill="#2c7ad4" d="M 15.5,16.5 C 18.2615,18.2116 21.2615,19.3782 24.5,20C 31.6314,20.9679 38.7981,21.4679 46,21.5C 57.5766,22.0296 68.7433,20.3629 79.5,16.5C 79.5,21.5 79.5,26.5 79.5,31.5C 69.5938,36.1138 59.0938,38.1138 48,37.5C 40.7981,37.4679 33.6314,36.9679 26.5,36C 22.419,35.3657 18.7523,33.8657 15.5,31.5C 15.5,26.5 15.5,21.5 15.5,16.5 Z"/></g>
<g><path style="opacity:1" fill="#1f5bb8" d="M 15.5,31.5 C 18.7523,33.8657 22.419,35.3657 26.5,36C 33.6314,36.9679 40.7981,37.4679 48,37.5C 59.0938,38.1138 69.5938,36.1138 79.5,31.5C 79.5,41.1667 79.5,50.8333 79.5,60.5C 77.2591,62.6464 74.5924,64.1464 71.5,65C 54.3816,68.5838 37.3816,68.2504 20.5,64C 18.6769,63.0027 17.0103,61.8361 15.5,60.5C 15.5,50.8333 15.5,41.1667 15.5,31.5 Z"/></g>
<g><path style="opacity:1" fill="#f0f4fa" d="M 44.5,43.5 C 55.1997,42.8986 58.533,47.5653 54.5,57.5C 55.3128,58.8139 56.3128,59.9805 57.5,61C 53.3233,60.2589 48.99,59.5922 44.5,59C 39.2215,53.8361 39.2215,48.6694 44.5,43.5 Z"/></g>
<g><path style="opacity:1" fill="#ebf0f8" d="M 31.5,43.5 C 33.8333,43.5 36.1667,43.5 38.5,43.5C 38.6567,44.8734 38.49,46.2068 38,47.5C 36.3005,46.5939 34.4672,46.2606 32.5,46.5C 32.281,47.675 32.6143,48.675 33.5,49.5C 39.6967,51.4193 40.6967,54.5859 36.5,59C 33.854,59.4974 31.1873,59.6641 28.5,59.5C 28.3433,58.1266 28.51,56.7932 29,55.5C 31.1385,56.7691 33.3052,56.7691 35.5,55.5C 33.4622,53.7236 31.2955,52.0569 29,50.5C 27.9164,47.3411 28.7498,45.0078 31.5,43.5 Z"/></g>
<g><path style="opacity:1" fill="#f6f9fc" d="M 59.5,43.5 C 60.5,43.5 61.5,43.5 62.5,43.5C 62.5,47.8333 62.5,52.1667 62.5,56.5C 64.5,56.5 66.5,56.5 68.5,56.5C 68.5,57.5 68.5,58.5 68.5,59.5C 65.5,59.5 62.5,59.5 59.5,59.5C 59.5,54.1667 59.5,48.8333 59.5,43.5 Z"/></g>
<g><path style="opacity:1" fill="#265fba" d="M 46.5,46.5 C 51.9885,46.504 53.8219,49.1707 52,54.5C 49.6667,57.1667 47.3333,57.1667 45,54.5C 44.1093,51.5024 44.6093,48.8357 46.5,46.5 Z"/></g>
<g><path style="opacity:0.989" fill="#103f8c" d="M 15.5,60.5 C 17.0103,61.8361 18.6769,63.0027 20.5,64C 37.3816,68.2504 54.3816,68.5838 71.5,65C 74.5924,64.1464 77.2591,62.6464 79.5,60.5C 79.6662,66.8421 79.4995,73.1754 79,79.5C 74.0439,82.7851 68.5439,84.6184 62.5,85C 52.5,85.6667 42.5,85.6667 32.5,85C 26.4561,84.6184 20.9561,82.7851 16,79.5C 15.5005,73.1754 15.3338,66.8421 15.5,60.5 Z"/></g>
</svg>
