<?xml version="1.0" encoding="UTF-8"?>
<svg version="1.1" xmlns="http://www.w3.org/2000/svg" width="100" height="100">
<path d="M0 0 C1.25612091 -0.00857025 2.51224182 -0.0171405 3.806427 -0.02597046 C6.45795024 -0.03743359 9.10791002 -0.04035993 11.75927734 -0.02978516 C15.13438355 -0.01820919 18.50728956 -0.05204394 21.88203239 -0.0984745 C25.12966863 -0.13526155 28.3771933 -0.12757393 31.625 -0.125 C33.42540237 -0.15262924 33.42540237 -0.15262924 35.26217651 -0.18081665 C43.03161977 -0.09576004 48.24380223 1.13663986 53.9453125 6.6015625 C58.98489569 12.70734256 58.55850027 18.97554445 58.546875 26.65625 C58.55544525 27.91237091 58.5640155 29.16849182 58.57284546 30.462677 C58.58430859 33.11420024 58.58723493 35.76416002 58.57666016 38.41552734 C58.56508419 41.79063355 58.59891894 45.16353956 58.6453495 48.53828239 C58.68213655 51.78591863 58.67444893 55.0334433 58.671875 58.28125 C58.69029449 59.48151825 58.70871399 60.6817865 58.72769165 61.91842651 C58.64263504 69.68786977 57.41023514 74.90005223 51.9453125 80.6015625 C45.83953244 85.64114569 39.57133055 85.21475027 31.890625 85.203125 C30.00644363 85.21598038 30.00644363 85.21598038 28.084198 85.22909546 C25.43267476 85.24055859 22.78271498 85.24348493 20.13134766 85.23291016 C16.75624145 85.22133419 13.38333544 85.25516894 10.00859261 85.3015995 C6.76095637 85.33838655 3.5134317 85.33069893 0.265625 85.328125 C-0.93464325 85.34654449 -2.1349115 85.36496399 -3.37155151 85.38394165 C-11.14099477 85.29888504 -16.35317723 84.06648514 -22.0546875 78.6015625 C-27.09427069 72.49578244 -26.66787527 66.22758055 -26.65625 58.546875 C-26.66482025 57.29075409 -26.6733905 56.03463318 -26.68222046 54.740448 C-26.69368359 52.08892476 -26.69660993 49.43896498 -26.68603516 46.78759766 C-26.67445919 43.41249145 -26.70829394 40.03958544 -26.7547245 36.66484261 C-26.79151155 33.41720637 -26.78382393 30.1696817 -26.78125 26.921875 C-26.79966949 25.72160675 -26.81808899 24.5213385 -26.83706665 23.28469849 C-26.75201004 15.51525523 -25.51961014 10.30307277 -20.0546875 4.6015625 C-13.94890744 -0.43802069 -7.68070555 -0.01162527 0 0 Z M-17.9921875 10.3515625 C-22.14282742 16.8919648 -22.36312335 23.05105085 -22.35546875 30.59375 C-22.35975388 31.53912628 -22.364039 32.48450256 -22.36845398 33.45852661 C-22.3741743 35.45037031 -22.37471456 37.44223488 -22.37036133 39.43408203 C-22.36720443 42.4603284 -22.39067902 45.48559317 -22.41601562 48.51171875 C-22.41828936 50.45572795 -22.41899177 52.39973974 -22.41796875 54.34375 C-22.4271785 55.23778534 -22.43638824 56.13182068 -22.44587708 57.052948 C-22.40037917 63.31753518 -21.84049607 70.12189405 -17.77973938 75.19406128 C-11.52700058 80.89551587 -4.02884355 80.91042828 3.9375 80.90234375 C4.88287628 80.90662888 5.82825256 80.910914 6.80227661 80.91532898 C8.79412031 80.9210493 10.78598488 80.92158956 12.77783203 80.91723633 C15.8040784 80.91407943 18.82934317 80.93755402 21.85546875 80.96289062 C23.79947795 80.96516436 25.74348974 80.96586677 27.6875 80.96484375 C28.58153534 80.9740535 29.47557068 80.98326324 30.396698 80.99275208 C36.66128518 80.94725417 43.46564405 80.38737107 48.53781128 76.32661438 C54.23926587 70.07387558 54.25417828 62.57571855 54.24609375 54.609375 C54.25252144 53.19131058 54.25252144 53.19131058 54.25907898 51.74459839 C54.2647993 49.75275469 54.26533956 47.76089012 54.26098633 45.76904297 C54.25782943 42.7427966 54.28130402 39.71753183 54.30664062 36.69140625 C54.30891436 34.74739705 54.30961677 32.80338526 54.30859375 30.859375 C54.3178035 29.96533966 54.32701324 29.07130432 54.33650208 28.150177 C54.29100417 21.88558982 53.73112107 15.08123095 49.67036438 10.00906372 C43.41762558 4.30760913 35.91946855 4.29269672 27.953125 4.30078125 C27.00774872 4.29649612 26.06237244 4.292211 25.08834839 4.28779602 C23.09650469 4.2820757 21.10464012 4.28153544 19.11279297 4.28588867 C16.0865466 4.28904557 13.06128183 4.26557098 10.03515625 4.24023438 C8.09114705 4.23796064 6.14713526 4.23725823 4.203125 4.23828125 C3.30908966 4.2290715 2.41505432 4.21986176 1.493927 4.21037292 C-5.4529613 4.26082619 -13.05745797 4.93968484 -17.9921875 10.3515625 Z " fill="#000000" transform="translate(34.0546875,7.3984375)"/>
<path d="M0 0 C11.54968321 -0.79147575 20.64828473 -0.25044618 29.9296875 7.640625 C37.09127669 15.26540155 38 22.45320032 38 33 C24.14 32.505 24.14 32.505 10 32 C10 39.59 10 47.18 10 55 C11.32 55.66 12.64 56.32 14 57 C14.99 57.495 14.99 57.495 16 58 C16 58.66 16 59.32 16 60 C4.45031679 60.79147575 -4.64828473 60.25044618 -13.9296875 52.359375 C-19.20423046 46.74369244 -22.22821813 40.14828223 -22.25 32.4375 C-22.18691823 30.95733137 -22.11103224 29.4773457 -22 28 C-17.0037204 32.16356634 -14.95046258 36.84351198 -13 43 C-13 43.66 -13 44.32 -13 45 C-11.02 44.34 -9.04 43.68 -7 43 C-7.495 41.515 -7.495 41.515 -8 40 C-8.12781786 37.32605036 -8.04391871 34.67904143 -8 32 C-9.32 31.67 -10.64 31.34 -12 31 C-9.44725126 28.54394629 -8.14109357 28.01197061 -4.546875 27.70703125 C-1.03125 27.8046875 2.484375 27.90234375 6 28 C6 20.41 6 12.82 6 5 C4.68 4.34 3.36 3.68 2 3 C1.34 2.67 0.68 2.34 0 2 C0 1.34 0 0.68 0 0 Z M10 6 C10 8.97 10 11.94 10 15 C11.65 15 13.3 15 15 15 C15.87436418 13.26424351 15.87436418 13.26424351 16 11 C14.28232418 8.20688307 14.28232418 8.20688307 12 6 C11.34 6 10.68 6 10 6 Z M20 8 C20.33 9.32 20.66 10.64 21 12 C21.99 11.67 22.98 11.34 24 11 C23.02149805 9.97895449 22.02019573 8.9793879 21 8 C20.67 8 20.34 8 20 8 Z M23 17 C23.33 20.63 23.66 24.26 24 28 C26.97 28 29.94 28 33 28 C32.50269348 23.02693484 31.44697666 19.36200187 29 15 C26.5527864 14.8509288 26.5527864 14.8509288 23 17 Z M10 20 C10 22.64 10 25.28 10 28 C12.97 28 15.94 28 19 28 C19.26932521 23.34947128 19.26932521 23.34947128 18 19 C15.2716232 19 12.68345937 19.53331141 10 20 Z M-3 32 C-3 34.64 -3 37.28 -3 40 C0.47823115 41.15941038 2.45895578 40.70820884 6 40 C6 37.36 6 34.72 6 32 C3.03 32 0.06 32 -3 32 Z M1 45 C0.03375833 46.67828408 0.03375833 46.67828408 0 49 C1.45145896 51.29767635 3.10430963 53.01403866 5 55 C5.33 55 5.66 55 6 55 C6 51.7 6 48.4 6 45 C4.35 45 2.7 45 1 45 Z M-7 48 C-7 48.99 -7 49.98 -7 51 C-6.01 51.33 -5.02 51.66 -4 52 C-4.33 50.68 -4.66 49.36 -5 48 C-5.66 48 -6.32 48 -7 48 Z " fill="#000000" transform="translate(42,20)"/>
<path d="M0 0 C1.46566406 -0.00386719 1.46566406 -0.00386719 2.9609375 -0.0078125 C3.98445313 -0.00007813 5.00796875 0.00765625 6.0625 0.015625 C7.08601563 0.00789063 8.10953125 0.00015625 9.1640625 -0.0078125 C10.14117187 -0.00523438 11.11828125 -0.00265625 12.125 0 C13.02347656 0.00225586 13.92195313 0.00451172 14.84765625 0.00683594 C17.0625 0.265625 17.0625 0.265625 19.0625 2.265625 C19.26102102 4.97485301 19.34089477 7.55865679 19.3125 10.265625 C19.32023437 11.00296875 19.32796875 11.7403125 19.3359375 12.5 C19.3158196 18.0123054 19.3158196 18.0123054 17.0625 20.265625 C15.7425 20.265625 14.4225 20.265625 13.0625 20.265625 C13.0625 22.245625 13.0625 24.225625 13.0625 26.265625 C9.44647989 25.92925104 7.47239995 25.60195316 4.625 23.265625 C1.4444026 20.78320752 -0.98933772 20.71258677 -4.9375 20.265625 C-7.49698999 17.70613501 -7.19818731 15.99355305 -7.2109375 12.5 C-7.20320313 11.76265625 -7.19546875 11.0253125 -7.1875 10.265625 C-7.19523437 9.52828125 -7.20296875 8.7909375 -7.2109375 8.03125 C-7.18804886 1.75976393 -6.30117316 0.01582074 0 0 Z M-2.9375 6.265625 C-3.2551246 8.17568806 -3.2551246 8.17568806 -3.1875 10.265625 C-3.19265625 10.966875 -3.1978125 11.668125 -3.203125 12.390625 C-3.09455515 14.5091919 -3.09455515 14.5091919 -0.9375 16.265625 C0.96250358 16.90329261 0.96250358 16.90329261 3.0625 17.328125 C5.27470107 17.82017708 7.02900273 18.24887637 9.0625 19.265625 C9.0625 18.275625 9.0625 17.285625 9.0625 16.265625 C10.2690625 16.0490625 10.2690625 16.0490625 11.5 15.828125 C13.98353706 15.52427251 13.98353706 15.52427251 15.0625 14.265625 C15.29168242 10.24905357 15.29168242 10.24905357 15.0625 6.265625 C13.15532361 3.92782045 13.15532361 3.92782045 9.875 4 C8.616875 4.00515625 7.35875 4.0103125 6.0625 4.015625 C4.1753125 4.00789063 4.1753125 4.00789063 2.25 4 C-1.03032361 3.92782045 -1.03032361 3.92782045 -2.9375 6.265625 Z " fill="#000000" transform="translate(62.9375,55.734375)"/>
<path d="M0 0 C1.46566406 -0.00386719 1.46566406 -0.00386719 2.9609375 -0.0078125 C3.98445313 -0.00007813 5.00796875 0.00765625 6.0625 0.015625 C7.08601563 0.00789063 8.10953125 0.00015625 9.1640625 -0.0078125 C10.14117187 -0.00523438 11.11828125 -0.00265625 12.125 0 C13.02347656 0.00225586 13.92195313 0.00451172 14.84765625 0.00683594 C17.0625 0.265625 17.0625 0.265625 19.0625 2.265625 C19.26102102 4.97485301 19.34089477 7.55865679 19.3125 10.265625 C19.32023437 11.00296875 19.32796875 11.7403125 19.3359375 12.5 C19.3158196 18.0123054 19.3158196 18.0123054 17.0625 20.265625 C15.4846875 20.4203125 15.4846875 20.4203125 13.875 20.578125 C9.69992854 21.33100674 7.89716085 22.54573173 4.73828125 25.20703125 C3.0625 26.265625 3.0625 26.265625 -0.9375 26.265625 C-0.9375 24.285625 -0.9375 22.305625 -0.9375 20.265625 C-1.741875 20.12125 -2.54625 19.976875 -3.375 19.828125 C-5.9375 19.265625 -5.9375 19.265625 -6.9375 18.265625 C-7.06408222 15.60739843 -7.12270214 12.98675076 -7.125 10.328125 C-7.13724609 9.58626953 -7.14949219 8.84441406 -7.16210938 8.08007812 C-7.16738478 6.14048871 -7.05938902 4.2013879 -6.9375 2.265625 C-4.40695663 -0.26491837 -3.50201118 0.00879271 0 0 Z M-2.9375 6.265625 C-3.2551246 8.17568806 -3.2551246 8.17568806 -3.1875 10.265625 C-3.19265625 10.966875 -3.1978125 11.668125 -3.203125 12.390625 C-3.09455515 14.5091919 -3.09455515 14.5091919 -0.9375 16.265625 C0.3825 16.265625 1.7025 16.265625 3.0625 16.265625 C3.3925 17.255625 3.7225 18.245625 4.0625 19.265625 C5.0525 18.605625 6.0425 17.945625 7.0625 17.265625 C9.39123375 16.58306511 11.72432791 15.91511725 14.0625 15.265625 C15.95738952 13.37073548 15.24269112 10.69423354 15.29296875 8.17578125 C15.2327792 6.0243614 15.2327792 6.0243614 13.0625 4.265625 C9.77485985 3.94504629 9.77485985 3.94504629 6.0625 4.015625 C4.1753125 4.00789063 4.1753125 4.00789063 2.25 4 C-1.03032361 3.92782045 -1.03032361 3.92782045 -2.9375 6.265625 Z " fill="#000000" transform="translate(24.9375,23.734375)"/>
</svg>
